<svg width="48" height="48" viewBox="0 0 48 48" fill="none" xmlns="http://www.w3.org/2000/svg">
<g clip-path="url(#clip0_2_73)">
<path d="M35.6352 16.7305C36.1767 16.1035 36.1074 15.1563 35.4804 14.6148C34.8535 14.0733 33.9063 14.1426 33.3648 14.7696L20.2268 29.982L14.615 23.7466C14.0608 23.1308 13.1123 23.0809 12.4966 23.6351C11.8808 24.1893 11.8309 25.1377 12.3851 25.7535L19.1351 33.2535C19.4231 33.5735 19.8348 33.7543 20.2654 33.7499C20.6959 33.7455 21.1038 33.5563 21.3852 33.2305L35.6352 16.7305Z" fill="white"/>
<path fill-rule="evenodd" clip-rule="evenodd" d="M24 48C37.2548 48 48 37.2548 48 24C48 10.7452 37.2548 0 24 0C10.7452 0 0 10.7452 0 24C0 37.2548 10.7452 48 24 48ZM45 24C45 35.598 35.598 45 24 45C12.402 45 3 35.598 3 24C3 12.402 12.402 3 24 3C35.598 3 45 12.402 45 24Z" fill="white"/>
</g>
<defs>
<clipPath id="clip0_2_73">
<rect width="48" height="48" fill="white"/>
</clipPath>
</defs>
</svg>
