<svg viewBox="0 0 35 33" fill="none" xmlns="http://www.w3.org/2000/svg">
<path d="M17.0233 1.16021C17.1708 0.694878 17.8292 0.694878 17.9767 1.16021L21.1802 11.2727C21.3777 11.896 21.9563 12.3197 22.6102 12.3197H33.03C33.5113 12.3197 33.7147 12.933 33.3288 13.2206L24.8558 19.5344C24.3433 19.9163 24.1291 20.581 24.3221 21.1902L27.5482 31.3736C27.6948 31.8365 27.1621 32.2157 26.7728 31.9256L18.3963 25.6836C17.8645 25.2874 17.1355 25.2874 16.6037 25.6836L8.22725 31.9256C7.8379 32.2157 7.30519 31.8365 7.45183 31.3736L10.6779 21.1902C10.8709 20.581 10.6567 19.9163 10.1442 19.5344L1.6712 13.2206C1.28527 12.933 1.48866 12.3197 1.96996 12.3197H12.3898C13.0437 12.3197 13.6223 11.896 13.8198 11.2727L17.0233 1.16021Z" stroke="#9F9F9F"/>
</svg>
